# xmcd CD database file
#
# Track frame offsets:
#	187
#	54967
#	68557
#	83025
#	114625
#	143297
#	162135
#	170465
#	186605
#	224470
#
# Disc length: 3354 seconds
#
# Revision: 0
# Processed by: cddbd v1.5.1PL0 Copyright (c) Steve Scherf et al.
# Submitted via: CDex 1.51
#
DISCID=830d180a
DTITLE=<チャン 唱>安淑善・金秀○ <アシェン>朴鍾善 <テーグム>徐龍錫 <チャンゴ>金清満 - 恨<ハン> 激迫の韓国南道民謡
DYEAR=1988
DGENRE=Other
TTITLE0=ユクチャベキー
TTITLE1=カンガンスルレー
TTITLE2=チンドアリラン 珍道アリラン
TTITLE3=セタリヨン 鳥打令
TTITLE4=ペンノレ
TTITLE5=ムルレタリヨン 糸車打令
TTITLE6=カットゥリタリヨン カットゥリ打令
TTITLE7=ナモンサンソン 南原山城
TTITLE8=ノンブカ 農夫歌
TTITLE9=フンタリヨン 興打令
EXTD=YEAR: 1988
EXTT0=
EXTT1=
EXTT2=
EXTT3=
EXTT4=
EXTT5=
EXTT6=
EXTT7=
EXTT8=
EXTT9=
PLAYORDER=
